# xmcd
#
# Track frame offsets: 
#        150
#        13981
#        29512
#        37393
#        55864
#        68108
#        89541
#        106137
#        117814
#        135030
#        146845
#        164861
#        183058
#        192142
#        206320
#
# Disc length: 2988 seconds
#
# Revision: 0
# Processed by: cddbd v1.5.2PL0 Copyright (c) Steve Scherf et al.
# Submitted via: ExactAudioCopy v0.99pb5
#
DISCID=d40baa0f
DTITLE=the natural yogurt band - away with melancholy
DYEAR=2009
DGENRE=Funk
TTITLE0=chapter one
TTITLE1=chit chat
TTITLE2=better days to come
TTITLE3=thoughts
TTITLE4=voodoo
TTITLE5=pipe dreams
TTITLE6=latin illusion
TTITLE7=invisible ink
TTITLE8=the woods
TTITLE9=weak without wine
TTITLE10=a broken rose
TTITLE11=space echo
TTITLE12=egg and spoon
TTITLE13=soft cheese
TTITLE14=lament for piano
EXTD=
EXTT0=
EXTT1=
EXTT2=
EXTT3=
EXTT4=
EXTT5=
EXTT6=
EXTT7=
EXTT8=
EXTT9=
EXTT10=
EXTT11=
EXTT12=
EXTT13=
EXTT14=
PLAYORDER=
